<?xml version="1.0" encoding="utf-8" standalone="no"?>
<!DOCTYPE svg PUBLIC "-//W3C//DTD SVG 1.1//EN"
  "http://www.w3.org/Graphics/SVG/1.1/DTD/svg11.dtd">
<svg height="473.76pt" version="1.1" viewBox="0 0 735.84 473.76" width="735.84pt" xmlns="http://www.w3.org/2000/svg" xmlns:xlink="http://www.w3.org/1999/xlink">
 <metadata>
  <rdf:RDF xmlns:cc="http://creativecommons.org/ns#" xmlns:dc="http://purl.org/dc/elements/1.1/" xmlns:rdf="http://www.w3.org/1999/02/22-rdf-syntax-ns#">
   <cc:Work>
    <dc:type rdf:resource="http://purl.org/dc/dcmitype/StillImage"/>
    <dc:date>2024-10-22T16:43:30.646560</dc:date>
    <dc:format>image/svg+xml</dc:format>
    <dc:creator>
     <cc:Agent>
      <dc:title>Matplotlib v3.4.3, https://matplotlib.org/</dc:title>
     </cc:Agent>
    </dc:creator>
   </cc:Work>
  </rdf:RDF>
 </metadata>
 <defs>
  <style type="text/css">*{stroke-linecap:butt;stroke-linejoin:round;}</style>
 </defs>
 <g id="figure_1">
  <g id="patch_1">
   <path d="M 0 473.76 
L 735.84 473.76 
L 735.84 0 
L 0 0 
z
" style="fill:#ffffff;"/>
  </g>
  <g id="axes_1">
   <g id="patch_2">
    <path d="M 91.98 421.6464 
L 662.256 421.6464 
L 662.256 56.8512 
L 91.98 56.8512 
z
" style="fill:#ffffff;"/>
   </g>
   <g id="matplotlib.axis_1">
    <g id="xtick_1">
     <g id="line2d_1">
      <path clip-path="url(#p7d4040d7ce)" d="M 91.98 421.6464 
L 91.98 56.8512 
" style="fill:none;stroke:#000000;stroke-linecap:square;stroke-width:0.8;"/>
     </g>
     <g id="line2d_2">
      <defs>
       <path d="M 0 0 
L 0 3.5 
" id="mf365854e4b" style="stroke:#000000;stroke-width:0.8;"/>
      </defs>
      <g>
       <use style="stroke:#000000;stroke-width:0.8;" x="91.98" xlink:href="#mf365854e4b" y="421.6464"/>
      </g>
     </g>
     <g id="text_1">
      <!-- 0 -->
      <g transform="translate(88.79875 436.244838)scale(0.1 -0.1)">
       <defs>
        <path d="M 2034 4250 
Q 1547 4250 1301 3770 
Q 1056 3291 1056 2328 
Q 1056 1369 1301 889 
Q 1547 409 2034 409 
Q 2525 409 2770 889 
Q 3016 1369 3016 2328 
Q 3016 3291 2770 3770 
Q 2525 4250 2034 4250 
z
M 2034 4750 
Q 2819 4750 3233 4129 
Q 3647 3509 3647 2328 
Q 3647 1150 3233 529 
Q 2819 -91 2034 -91 
Q 1250 -91 836 529 
Q 422 1150 422 2328 
Q 422 3509 836 4129 
Q 1250 4750 2034 4750 
z
" id="DejaVuSans-30" transform="scale(0.015625)"/>
       </defs>
       <use xlink:href="#DejaVuSans-30"/>
      </g>
     </g>
    </g>
    <g id="xtick_2">
     <g id="line2d_3">
      <path clip-path="url(#p7d4040d7ce)" d="M 246.108649 421.6464 
L 246.108649 56.8512 
" style="fill:none;stroke:#000000;stroke-linecap:square;stroke-width:0.8;"/>
     </g>
     <g id="line2d_4">
      <g>
       <use style="stroke:#000000;stroke-width:0.8;" x="246.108649" xlink:href="#mf365854e4b" y="421.6464"/>
      </g>
     </g>
     <g id="text_2">
      <!-- 2 -->
      <g transform="translate(242.927399 436.244838)scale(0.1 -0.1)">
       <defs>
        <path d="M 1228 531 
L 3431 531 
L 3431 0 
L 469 0 
L 469 531 
Q 828 903 1448 1529 
Q 2069 2156 2228 2338 
Q 2531 2678 2651 2914 
Q 2772 3150 2772 3378 
Q 2772 3750 2511 3984 
Q 2250 4219 1831 4219 
Q 1534 4219 1204 4116 
Q 875 4013 500 3803 
L 500 4441 
Q 881 4594 1212 4672 
Q 1544 4750 1819 4750 
Q 2544 4750 2975 4387 
Q 3406 4025 3406 3419 
Q 3406 3131 3298 2873 
Q 3191 2616 2906 2266 
Q 2828 2175 2409 1742 
Q 1991 1309 1228 531 
z
" id="DejaVuSans-32" transform="scale(0.015625)"/>
       </defs>
       <use xlink:href="#DejaVuSans-32"/>
      </g>
     </g>
    </g>
    <g id="xtick_3">
     <g id="line2d_5">
      <path clip-path="url(#p7d4040d7ce)" d="M 400.237297 421.6464 
L 400.237297 56.8512 
" style="fill:none;stroke:#000000;stroke-linecap:square;stroke-width:0.8;"/>
     </g>
     <g id="line2d_6">
      <g>
       <use style="stroke:#000000;stroke-width:0.8;" x="400.237297" xlink:href="#mf365854e4b" y="421.6464"/>
      </g>
     </g>
     <g id="text_3">
      <!-- 4 -->
      <g transform="translate(397.056047 436.244838)scale(0.1 -0.1)">
       <defs>
        <path d="M 2419 4116 
L 825 1625 
L 2419 1625 
L 2419 4116 
z
M 2253 4666 
L 3047 4666 
L 3047 1625 
L 3713 1625 
L 3713 1100 
L 3047 1100 
L 3047 0 
L 2419 0 
L 2419 1100 
L 313 1100 
L 313 1709 
L 2253 4666 
z
" id="DejaVuSans-34" transform="scale(0.015625)"/>
       </defs>
       <use xlink:href="#DejaVuSans-34"/>
      </g>
     </g>
    </g>
    <g id="xtick_4">
     <g id="line2d_7">
      <path clip-path="url(#p7d4040d7ce)" d="M 554.365946 421.6464 
L 554.365946 56.8512 
" style="fill:none;stroke:#000000;stroke-linecap:square;stroke-width:0.8;"/>
     </g>
     <g id="line2d_8">
      <g>
       <use style="stroke:#000000;stroke-width:0.8;" x="554.365946" xlink:href="#mf365854e4b" y="421.6464"/>
      </g>
     </g>
     <g id="text_4">
      <!-- 6 -->
      <g transform="translate(551.184696 436.244838)scale(0.1 -0.1)">
       <defs>
        <path d="M 2113 2584 
Q 1688 2584 1439 2293 
Q 1191 2003 1191 1497 
Q 1191 994 1439 701 
Q 1688 409 2113 409 
Q 2538 409 2786 701 
Q 3034 994 3034 1497 
Q 3034 2003 2786 2293 
Q 2538 2584 2113 2584 
z
M 3366 4563 
L 3366 3988 
Q 3128 4100 2886 4159 
Q 2644 4219 2406 4219 
Q 1781 4219 1451 3797 
Q 1122 3375 1075 2522 
Q 1259 2794 1537 2939 
Q 1816 3084 2150 3084 
Q 2853 3084 3261 2657 
Q 3669 2231 3669 1497 
Q 3669 778 3244 343 
Q 2819 -91 2113 -91 
Q 1303 -91 875 529 
Q 447 1150 447 2328 
Q 447 3434 972 4092 
Q 1497 4750 2381 4750 
Q 2619 4750 2861 4703 
Q 3103 4656 3366 4563 
z
" id="DejaVuSans-36" transform="scale(0.015625)"/>
       </defs>
       <use xlink:href="#DejaVuSans-36"/>
      </g>
     </g>
    </g>
    <g id="xtick_5">
     <g id="line2d_9">
      <path clip-path="url(#p7d4040d7ce)" d="M 130.512162 421.6464 
L 130.512162 56.8512 
" style="fill:none;stroke:#808080;stroke-linecap:square;stroke-width:0.8;"/>
     </g>
     <g id="line2d_10">
      <defs>
       <path d="M 0 0 
L 0 2 
" id="me6b4280c37" style="stroke:#000000;stroke-width:0.6;"/>
      </defs>
      <g>
       <use style="stroke:#000000;stroke-width:0.6;" x="130.512162" xlink:href="#me6b4280c37" y="421.6464"/>
      </g>
     </g>
    </g>
    <g id="xtick_6">
     <g id="line2d_11">
      <path clip-path="url(#p7d4040d7ce)" d="M 169.044324 421.6464 
L 169.044324 56.8512 
" style="fill:none;stroke:#808080;stroke-linecap:square;stroke-width:0.8;"/>
     </g>
     <g id="line2d_12">
      <g>
       <use style="stroke:#000000;stroke-width:0.6;" x="169.044324" xlink:href="#me6b4280c37" y="421.6464"/>
      </g>
     </g>
    </g>
    <g id="xtick_7">
     <g id="line2d_13">
      <path clip-path="url(#p7d4040d7ce)" d="M 207.576486 421.6464 
L 207.576486 56.8512 
" style="fill:none;stroke:#808080;stroke-linecap:square;stroke-width:0.8;"/>
     </g>
     <g id="line2d_14">
      <g>
       <use style="stroke:#000000;stroke-width:0.6;" x="207.576486" xlink:href="#me6b4280c37" y="421.6464"/>
      </g>
     </g>
    </g>
    <g id="xtick_8">
     <g id="line2d_15">
      <path clip-path="url(#p7d4040d7ce)" d="M 284.640811 421.6464 
L 284.640811 56.8512 
" style="fill:none;stroke:#808080;stroke-linecap:square;stroke-width:0.8;"/>
     </g>
     <g id="line2d_16">
      <g>
       <use style="stroke:#000000;stroke-width:0.6;" x="284.640811" xlink:href="#me6b4280c37" y="421.6464"/>
      </g>
     </g>
    </g>
    <g id="xtick_9">
     <g id="line2d_17">
      <path clip-path="url(#p7d4040d7ce)" d="M 323.172973 421.6464 
L 323.172973 56.8512 
" style="fill:none;stroke:#808080;stroke-linecap:square;stroke-width:0.8;"/>
     </g>
     <g id="line2d_18">
      <g>
       <use style="stroke:#000000;stroke-width:0.6;" x="323.172973" xlink:href="#me6b4280c37" y="421.6464"/>
      </g>
     </g>
    </g>
    <g id="xtick_10">
     <g id="line2d_19">
      <path clip-path="url(#p7d4040d7ce)" d="M 361.705135 421.6464 
L 361.705135 56.8512 
" style="fill:none;stroke:#808080;stroke-linecap:square;stroke-width:0.8;"/>
     </g>
     <g id="line2d_20">
      <g>
       <use style="stroke:#000000;stroke-width:0.6;" x="361.705135" xlink:href="#me6b4280c37" y="421.6464"/>
      </g>
     </g>
    </g>
    <g id="xtick_11">
     <g id="line2d_21">
      <path clip-path="url(#p7d4040d7ce)" d="M 438.769459 421.6464 
L 438.769459 56.8512 
" style="fill:none;stroke:#808080;stroke-linecap:square;stroke-width:0.8;"/>
     </g>
     <g id="line2d_22">
      <g>
       <use style="stroke:#000000;stroke-width:0.6;" x="438.769459" xlink:href="#me6b4280c37" y="421.6464"/>
      </g>
     </g>
    </g>
    <g id="xtick_12">
     <g id="line2d_23">
      <path clip-path="url(#p7d4040d7ce)" d="M 477.301622 421.6464 
L 477.301622 56.8512 
" style="fill:none;stroke:#808080;stroke-linecap:square;stroke-width:0.8;"/>
     </g>
     <g id="line2d_24">
      <g>
       <use style="stroke:#000000;stroke-width:0.6;" x="477.301622" xlink:href="#me6b4280c37" y="421.6464"/>
      </g>
     </g>
    </g>
    <g id="xtick_13">
     <g id="line2d_25">
      <path clip-path="url(#p7d4040d7ce)" d="M 515.833784 421.6464 
L 515.833784 56.8512 
" style="fill:none;stroke:#808080;stroke-linecap:square;stroke-width:0.8;"/>
     </g>
     <g id="line2d_26">
      <g>
       <use style="stroke:#000000;stroke-width:0.6;" x="515.833784" xlink:href="#me6b4280c37" y="421.6464"/>
      </g>
     </g>
    </g>
    <g id="xtick_14">
     <g id="line2d_27">
      <path clip-path="url(#p7d4040d7ce)" d="M 592.898108 421.6464 
L 592.898108 56.8512 
" style="fill:none;stroke:#808080;stroke-linecap:square;stroke-width:0.8;"/>
     </g>
     <g id="line2d_28">
      <g>
       <use style="stroke:#000000;stroke-width:0.6;" x="592.898108" xlink:href="#me6b4280c37" y="421.6464"/>
      </g>
     </g>
    </g>
    <g id="xtick_15">
     <g id="line2d_29">
      <path clip-path="url(#p7d4040d7ce)" d="M 631.43027 421.6464 
L 631.43027 56.8512 
" style="fill:none;stroke:#808080;stroke-linecap:square;stroke-width:0.8;"/>
     </g>
     <g id="line2d_30">
      <g>
       <use style="stroke:#000000;stroke-width:0.6;" x="631.43027" xlink:href="#me6b4280c37" y="421.6464"/>
      </g>
     </g>
    </g>
    <g id="text_5">
     <!-- время с начала эксперимента в секундах -->
     <g transform="translate(266.957063 449.922962)scale(0.1 -0.1)">
      <defs>
       <path d="M 1156 1613 
L 1156 459 
L 1975 459 
Q 2369 459 2575 607 
Q 2781 756 2781 1038 
Q 2781 1319 2575 1466 
Q 2369 1613 1975 1613 
L 1156 1613 
z
M 1156 3041 
L 1156 2072 
L 1913 2072 
Q 2238 2072 2444 2201 
Q 2650 2331 2650 2563 
Q 2650 2794 2444 2917 
Q 2238 3041 1913 3041 
L 1156 3041 
z
M 581 3500 
L 1950 3500 
Q 2566 3500 2897 3275 
Q 3228 3050 3228 2634 
Q 3228 2313 3059 2123 
Q 2891 1934 2559 1888 
Q 2956 1813 3175 1575 
Q 3394 1338 3394 981 
Q 3394 513 3033 256 
Q 2672 0 2003 0 
L 581 0 
L 581 3500 
z
" id="DejaVuSans-432" transform="scale(0.015625)"/>
       <path d="M 1159 525 
L 1159 -1331 
L 581 -1331 
L 581 3500 
L 1159 3500 
L 1159 2969 
Q 1341 3281 1617 3432 
Q 1894 3584 2278 3584 
Q 2916 3584 3314 3078 
Q 3713 2572 3713 1747 
Q 3713 922 3314 415 
Q 2916 -91 2278 -91 
Q 1894 -91 1617 61 
Q 1341 213 1159 525 
z
M 3116 1747 
Q 3116 2381 2855 2742 
Q 2594 3103 2138 3103 
Q 1681 3103 1420 2742 
Q 1159 2381 1159 1747 
Q 1159 1113 1420 752 
Q 1681 391 2138 391 
Q 2594 391 2855 752 
Q 3116 1113 3116 1747 
z
" id="DejaVuSans-440" transform="scale(0.015625)"/>
       <path d="M 3597 1894 
L 3597 1613 
L 953 1613 
Q 991 1019 1311 708 
Q 1631 397 2203 397 
Q 2534 397 2845 478 
Q 3156 559 3463 722 
L 3463 178 
Q 3153 47 2828 -22 
Q 2503 -91 2169 -91 
Q 1331 -91 842 396 
Q 353 884 353 1716 
Q 353 2575 817 3079 
Q 1281 3584 2069 3584 
Q 2775 3584 3186 3129 
Q 3597 2675 3597 1894 
z
M 3022 2063 
Q 3016 2534 2758 2815 
Q 2500 3097 2075 3097 
Q 1594 3097 1305 2825 
Q 1016 2553 972 2059 
L 3022 2063 
z
" id="DejaVuSans-435" transform="scale(0.015625)"/>
       <path d="M 581 3500 
L 1422 3500 
L 2416 1156 
L 3413 3500 
L 4247 3500 
L 4247 0 
L 3669 0 
L 3669 2950 
L 2703 672 
L 2128 672 
L 1159 2950 
L 1159 0 
L 581 0 
L 581 3500 
z
" id="DejaVuSans-43c" transform="scale(0.015625)"/>
       <path d="M 1181 2491 
Q 1181 2231 1381 2084 
Q 1581 1938 1953 1938 
L 2728 1938 
L 2728 3041 
L 1953 3041 
Q 1581 3041 1381 2897 
Q 1181 2753 1181 2491 
z
M 363 0 
L 1431 1534 
Q 1069 1616 828 1830 
Q 588 2044 588 2491 
Q 588 2997 923 3248 
Q 1259 3500 1938 3500 
L 3306 3500 
L 3306 0 
L 2728 0 
L 2728 1478 
L 2013 1478 
L 981 0 
L 363 0 
z
" id="DejaVuSans-44f" transform="scale(0.015625)"/>
       <path id="DejaVuSans-20" transform="scale(0.015625)"/>
       <path d="M 3122 3366 
L 3122 2828 
Q 2878 2963 2633 3030 
Q 2388 3097 2138 3097 
Q 1578 3097 1268 2742 
Q 959 2388 959 1747 
Q 959 1106 1268 751 
Q 1578 397 2138 397 
Q 2388 397 2633 464 
Q 2878 531 3122 666 
L 3122 134 
Q 2881 22 2623 -34 
Q 2366 -91 2075 -91 
Q 1284 -91 818 406 
Q 353 903 353 1747 
Q 353 2603 823 3093 
Q 1294 3584 2113 3584 
Q 2378 3584 2631 3529 
Q 2884 3475 3122 3366 
z
" id="DejaVuSans-441" transform="scale(0.015625)"/>
       <path d="M 581 3500 
L 1159 3500 
L 1159 2072 
L 3025 2072 
L 3025 3500 
L 3603 3500 
L 3603 0 
L 3025 0 
L 3025 1613 
L 1159 1613 
L 1159 0 
L 581 0 
L 581 3500 
z
" id="DejaVuSans-43d" transform="scale(0.015625)"/>
       <path d="M 2194 1759 
Q 1497 1759 1228 1600 
Q 959 1441 959 1056 
Q 959 750 1161 570 
Q 1363 391 1709 391 
Q 2188 391 2477 730 
Q 2766 1069 2766 1631 
L 2766 1759 
L 2194 1759 
z
M 3341 1997 
L 3341 0 
L 2766 0 
L 2766 531 
Q 2569 213 2275 61 
Q 1981 -91 1556 -91 
Q 1019 -91 701 211 
Q 384 513 384 1019 
Q 384 1609 779 1909 
Q 1175 2209 1959 2209 
L 2766 2209 
L 2766 2266 
Q 2766 2663 2505 2880 
Q 2244 3097 1772 3097 
Q 1472 3097 1187 3025 
Q 903 2953 641 2809 
L 641 3341 
Q 956 3463 1253 3523 
Q 1550 3584 1831 3584 
Q 2591 3584 2966 3190 
Q 3341 2797 3341 1997 
z
" id="DejaVuSans-430" transform="scale(0.015625)"/>
       <path d="M 2625 0 
L 2625 1472 
L 1553 1472 
Q 1075 1472 756 1769 
Q 469 2038 469 2613 
L 469 3500 
L 1044 3500 
L 1044 2666 
Q 1044 2300 1206 2116 
Q 1372 1931 1697 1931 
L 2625 1931 
L 2625 3500 
L 3200 3500 
L 3200 0 
L 2625 0 
z
" id="DejaVuSans-447" transform="scale(0.015625)"/>
       <path d="M 238 0 
L 238 478 
Q 806 566 981 959 
Q 1194 1513 1194 2928 
L 1194 3500 
L 3559 3500 
L 3559 0 
L 2984 0 
L 2984 3041 
L 1769 3041 
L 1769 2694 
Q 1769 1344 1494 738 
Q 1200 91 238 0 
z
" id="DejaVuSans-43b" transform="scale(0.015625)"/>
       <path d="M 353 666 
Q 847 397 1338 397 
Q 1797 397 2125 664 
Q 2453 931 2513 1613 
L 738 1613 
L 738 2072 
L 2494 2072 
Q 2456 2400 2207 2748 
Q 1959 3097 1338 3097 
Q 856 3097 353 2828 
L 353 3366 
Q 844 3584 1363 3584 
Q 2181 3584 2651 3089 
Q 3122 2594 3122 1747 
Q 3122 903 2664 406 
Q 2206 -91 1403 -91 
Q 813 -91 353 134 
L 353 666 
z
" id="DejaVuSans-44d" transform="scale(0.015625)"/>
       <path d="M 581 3500 
L 1153 3500 
L 1153 1856 
L 2775 3500 
L 3481 3500 
L 2144 2147 
L 3653 0 
L 3009 0 
L 1769 1766 
L 1153 1141 
L 1153 0 
L 581 0 
L 581 3500 
z
" id="DejaVuSans-43a" transform="scale(0.015625)"/>
       <path d="M 3603 3500 
L 3603 0 
L 3025 0 
L 3025 3041 
L 1159 3041 
L 1159 0 
L 581 0 
L 581 3500 
L 3603 3500 
z
" id="DejaVuSans-43f" transform="scale(0.015625)"/>
       <path d="M 3578 3500 
L 3578 0 
L 3006 0 
L 3006 2809 
L 1319 0 
L 581 0 
L 581 3500 
L 1153 3500 
L 1153 697 
L 2838 3500 
L 3578 3500 
z
" id="DejaVuSans-438" transform="scale(0.015625)"/>
       <path d="M 188 3500 
L 3541 3500 
L 3541 3041 
L 2147 3041 
L 2147 0 
L 1581 0 
L 1581 3041 
L 188 3041 
L 188 3500 
z
" id="DejaVuSans-442" transform="scale(0.015625)"/>
       <path d="M 2059 -325 
Q 1816 -950 1584 -1140 
Q 1353 -1331 966 -1331 
L 506 -1331 
L 506 -850 
L 844 -850 
Q 1081 -850 1212 -737 
Q 1344 -625 1503 -206 
L 1606 56 
L 191 3500 
L 800 3500 
L 1894 763 
L 2988 3500 
L 3597 3500 
L 2059 -325 
z
" id="DejaVuSans-443" transform="scale(0.015625)"/>
       <path d="M 1384 459 
L 3053 459 
L 3053 3041 
L 1844 3041 
L 1844 2603 
Q 1844 1316 1475 628 
L 1384 459 
z
M 550 459 
Q 834 584 959 850 
Q 1266 1509 1266 2838 
L 1266 3500 
L 3631 3500 
L 3631 459 
L 4091 459 
L 4091 -884 
L 3631 -884 
L 3631 0 
L 794 0 
L 794 -884 
L 334 -884 
L 334 459 
L 550 459 
z
" id="DejaVuSans-434" transform="scale(0.015625)"/>
       <path d="M 3513 3500 
L 2247 1797 
L 3578 0 
L 2900 0 
L 1881 1375 
L 863 0 
L 184 0 
L 1544 1831 
L 300 3500 
L 978 3500 
L 1906 2253 
L 2834 3500 
L 3513 3500 
z
" id="DejaVuSans-445" transform="scale(0.015625)"/>
      </defs>
      <use xlink:href="#DejaVuSans-432"/>
      <use x="58.935547" xlink:href="#DejaVuSans-440"/>
      <use x="122.412109" xlink:href="#DejaVuSans-435"/>
      <use x="183.935547" xlink:href="#DejaVuSans-43c"/>
      <use x="259.375" xlink:href="#DejaVuSans-44f"/>
      <use x="319.53125" xlink:href="#DejaVuSans-20"/>
      <use x="351.318359" xlink:href="#DejaVuSans-441"/>
      <use x="406.298828" xlink:href="#DejaVuSans-20"/>
      <use x="438.085938" xlink:href="#DejaVuSans-43d"/>
      <use x="503.466797" xlink:href="#DejaVuSans-430"/>
      <use x="564.746094" xlink:href="#DejaVuSans-447"/>
      <use x="623.828125" xlink:href="#DejaVuSans-430"/>
      <use x="685.107422" xlink:href="#DejaVuSans-43b"/>
      <use x="749.023438" xlink:href="#DejaVuSans-430"/>
      <use x="810.302734" xlink:href="#DejaVuSans-20"/>
      <use x="842.089844" xlink:href="#DejaVuSans-44d"/>
      <use x="896.972656" xlink:href="#DejaVuSans-43a"/>
      <use x="957.373047" xlink:href="#DejaVuSans-441"/>
      <use x="1012.353516" xlink:href="#DejaVuSans-43f"/>
      <use x="1077.734375" xlink:href="#DejaVuSans-435"/>
      <use x="1139.257812" xlink:href="#DejaVuSans-440"/>
      <use x="1202.734375" xlink:href="#DejaVuSans-438"/>
      <use x="1267.724609" xlink:href="#DejaVuSans-43c"/>
      <use x="1343.164062" xlink:href="#DejaVuSans-435"/>
      <use x="1404.6875" xlink:href="#DejaVuSans-43d"/>
      <use x="1470.068359" xlink:href="#DejaVuSans-442"/>
      <use x="1528.320312" xlink:href="#DejaVuSans-430"/>
      <use x="1589.599609" xlink:href="#DejaVuSans-20"/>
      <use x="1621.386719" xlink:href="#DejaVuSans-432"/>
      <use x="1680.322266" xlink:href="#DejaVuSans-20"/>
      <use x="1712.109375" xlink:href="#DejaVuSans-441"/>
      <use x="1767.089844" xlink:href="#DejaVuSans-435"/>
      <use x="1828.613281" xlink:href="#DejaVuSans-43a"/>
      <use x="1889.013672" xlink:href="#DejaVuSans-443"/>
      <use x="1948.193359" xlink:href="#DejaVuSans-43d"/>
      <use x="2013.574219" xlink:href="#DejaVuSans-434"/>
      <use x="2082.714844" xlink:href="#DejaVuSans-430"/>
      <use x="2143.994141" xlink:href="#DejaVuSans-445"/>
     </g>
    </g>
   </g>
   <g id="matplotlib.axis_2">
    <g id="ytick_1">
     <g id="line2d_31">
      <path clip-path="url(#p7d4040d7ce)" d="M 91.98 421.6464 
L 662.256 421.6464 
" style="fill:none;stroke:#000000;stroke-linecap:square;stroke-width:0.8;"/>
     </g>
     <g id="line2d_32">
      <defs>
       <path d="M 0 0 
L -3.5 0 
" id="m0709db41eb" style="stroke:#000000;stroke-width:0.8;"/>
      </defs>
      <g>
       <use style="stroke:#000000;stroke-width:0.8;" x="91.98" xlink:href="#m0709db41eb" y="421.6464"/>
      </g>
     </g>
     <g id="text_6">
      <!-- 0 -->
      <g transform="translate(78.6175 425.445619)scale(0.1 -0.1)">
       <use xlink:href="#DejaVuSans-30"/>
      </g>
     </g>
    </g>
    <g id="ytick_2">
     <g id="line2d_33">
      <path clip-path="url(#p7d4040d7ce)" d="M 91.98 311.1024 
L 662.256 311.1024 
" style="fill:none;stroke:#000000;stroke-linecap:square;stroke-width:0.8;"/>
     </g>
     <g id="line2d_34">
      <g>
       <use style="stroke:#000000;stroke-width:0.8;" x="91.98" xlink:href="#m0709db41eb" y="311.1024"/>
      </g>
     </g>
     <g id="text_7">
      <!-- 1 -->
      <g transform="translate(78.6175 314.901619)scale(0.1 -0.1)">
       <defs>
        <path d="M 794 531 
L 1825 531 
L 1825 4091 
L 703 3866 
L 703 4441 
L 1819 4666 
L 2450 4666 
L 2450 531 
L 3481 531 
L 3481 0 
L 794 0 
L 794 531 
z
" id="DejaVuSans-31" transform="scale(0.015625)"/>
       </defs>
       <use xlink:href="#DejaVuSans-31"/>
      </g>
     </g>
    </g>
    <g id="ytick_3">
     <g id="line2d_35">
      <path clip-path="url(#p7d4040d7ce)" d="M 91.98 200.5584 
L 662.256 200.5584 
" style="fill:none;stroke:#000000;stroke-linecap:square;stroke-width:0.8;"/>
     </g>
     <g id="line2d_36">
      <g>
       <use style="stroke:#000000;stroke-width:0.8;" x="91.98" xlink:href="#m0709db41eb" y="200.5584"/>
      </g>
     </g>
     <g id="text_8">
      <!-- 2 -->
      <g transform="translate(78.6175 204.357619)scale(0.1 -0.1)">
       <use xlink:href="#DejaVuSans-32"/>
      </g>
     </g>
    </g>
    <g id="ytick_4">
     <g id="line2d_37">
      <path clip-path="url(#p7d4040d7ce)" d="M 91.98 90.0144 
L 662.256 90.0144 
" style="fill:none;stroke:#000000;stroke-linecap:square;stroke-width:0.8;"/>
     </g>
     <g id="line2d_38">
      <g>
       <use style="stroke:#000000;stroke-width:0.8;" x="91.98" xlink:href="#m0709db41eb" y="90.0144"/>
      </g>
     </g>
     <g id="text_9">
      <!-- 3 -->
      <g transform="translate(78.6175 93.813619)scale(0.1 -0.1)">
       <defs>
        <path d="M 2597 2516 
Q 3050 2419 3304 2112 
Q 3559 1806 3559 1356 
Q 3559 666 3084 287 
Q 2609 -91 1734 -91 
Q 1441 -91 1130 -33 
Q 819 25 488 141 
L 488 750 
Q 750 597 1062 519 
Q 1375 441 1716 441 
Q 2309 441 2620 675 
Q 2931 909 2931 1356 
Q 2931 1769 2642 2001 
Q 2353 2234 1838 2234 
L 1294 2234 
L 1294 2753 
L 1863 2753 
Q 2328 2753 2575 2939 
Q 2822 3125 2822 3475 
Q 2822 3834 2567 4026 
Q 2313 4219 1838 4219 
Q 1578 4219 1281 4162 
Q 984 4106 628 3988 
L 628 4550 
Q 988 4650 1302 4700 
Q 1616 4750 1894 4750 
Q 2613 4750 3031 4423 
Q 3450 4097 3450 3541 
Q 3450 3153 3228 2886 
Q 3006 2619 2597 2516 
z
" id="DejaVuSans-33" transform="scale(0.015625)"/>
       </defs>
       <use xlink:href="#DejaVuSans-33"/>
      </g>
     </g>
    </g>
    <g id="ytick_5">
     <g id="line2d_39">
      <path clip-path="url(#p7d4040d7ce)" d="M 91.98 399.5376 
L 662.256 399.5376 
" style="fill:none;stroke:#808080;stroke-linecap:square;stroke-width:0.8;"/>
     </g>
     <g id="line2d_40">
      <defs>
       <path d="M 0 0 
L -2 0 
" id="m170b8459fb" style="stroke:#000000;stroke-width:0.6;"/>
      </defs>
      <g>
       <use style="stroke:#000000;stroke-width:0.6;" x="91.98" xlink:href="#m170b8459fb" y="399.5376"/>
      </g>
     </g>
    </g>
    <g id="ytick_6">
     <g id="line2d_41">
      <path clip-path="url(#p7d4040d7ce)" d="M 91.98 377.4288 
L 662.256 377.4288 
" style="fill:none;stroke:#808080;stroke-linecap:square;stroke-width:0.8;"/>
     </g>
     <g id="line2d_42">
      <g>
       <use style="stroke:#000000;stroke-width:0.6;" x="91.98" xlink:href="#m170b8459fb" y="377.4288"/>
      </g>
     </g>
    </g>
    <g id="ytick_7">
     <g id="line2d_43">
      <path clip-path="url(#p7d4040d7ce)" d="M 91.98 355.32 
L 662.256 355.32 
" style="fill:none;stroke:#808080;stroke-linecap:square;stroke-width:0.8;"/>
     </g>
     <g id="line2d_44">
      <g>
       <use style="stroke:#000000;stroke-width:0.6;" x="91.98" xlink:href="#m170b8459fb" y="355.32"/>
      </g>
     </g>
    </g>
    <g id="ytick_8">
     <g id="line2d_45">
      <path clip-path="url(#p7d4040d7ce)" d="M 91.98 333.2112 
L 662.256 333.2112 
" style="fill:none;stroke:#808080;stroke-linecap:square;stroke-width:0.8;"/>
     </g>
     <g id="line2d_46">
      <g>
       <use style="stroke:#000000;stroke-width:0.6;" x="91.98" xlink:href="#m170b8459fb" y="333.2112"/>
      </g>
     </g>
    </g>
    <g id="ytick_9">
     <g id="line2d_47">
      <path clip-path="url(#p7d4040d7ce)" d="M 91.98 288.9936 
L 662.256 288.9936 
" style="fill:none;stroke:#808080;stroke-linecap:square;stroke-width:0.8;"/>
     </g>
     <g id="line2d_48">
      <g>
       <use style="stroke:#000000;stroke-width:0.6;" x="91.98" xlink:href="#m170b8459fb" y="288.9936"/>
      </g>
     </g>
    </g>
    <g id="ytick_10">
     <g id="line2d_49">
      <path clip-path="url(#p7d4040d7ce)" d="M 91.98 266.8848 
L 662.256 266.8848 
" style="fill:none;stroke:#808080;stroke-linecap:square;stroke-width:0.8;"/>
     </g>
     <g id="line2d_50">
      <g>
       <use style="stroke:#000000;stroke-width:0.6;" x="91.98" xlink:href="#m170b8459fb" y="266.8848"/>
      </g>
     </g>
    </g>
    <g id="ytick_11">
     <g id="line2d_51">
      <path clip-path="url(#p7d4040d7ce)" d="M 91.98 244.776 
L 662.256 244.776 
" style="fill:none;stroke:#808080;stroke-linecap:square;stroke-width:0.8;"/>
     </g>
     <g id="line2d_52">
      <g>
       <use style="stroke:#000000;stroke-width:0.6;" x="91.98" xlink:href="#m170b8459fb" y="244.776"/>
      </g>
     </g>
    </g>
    <g id="ytick_12">
     <g id="line2d_53">
      <path clip-path="url(#p7d4040d7ce)" d="M 91.98 222.6672 
L 662.256 222.6672 
" style="fill:none;stroke:#808080;stroke-linecap:square;stroke-width:0.8;"/>
     </g>
     <g id="line2d_54">
      <g>
       <use style="stroke:#000000;stroke-width:0.6;" x="91.98" xlink:href="#m170b8459fb" y="222.6672"/>
      </g>
     </g>
    </g>
    <g id="ytick_13">
     <g id="line2d_55">
      <path clip-path="url(#p7d4040d7ce)" d="M 91.98 178.4496 
L 662.256 178.4496 
" style="fill:none;stroke:#808080;stroke-linecap:square;stroke-width:0.8;"/>
     </g>
     <g id="line2d_56">
      <g>
       <use style="stroke:#000000;stroke-width:0.6;" x="91.98" xlink:href="#m170b8459fb" y="178.4496"/>
      </g>
     </g>
    </g>
    <g id="ytick_14">
     <g id="line2d_57">
      <path clip-path="url(#p7d4040d7ce)" d="M 91.98 156.3408 
L 662.256 156.3408 
" style="fill:none;stroke:#808080;stroke-linecap:square;stroke-width:0.8;"/>
     </g>
     <g id="line2d_58">
      <g>
       <use style="stroke:#000000;stroke-width:0.6;" x="91.98" xlink:href="#m170b8459fb" y="156.3408"/>
      </g>
     </g>
    </g>
    <g id="ytick_15">
     <g id="line2d_59">
      <path clip-path="url(#p7d4040d7ce)" d="M 91.98 134.232 
L 662.256 134.232 
" style="fill:none;stroke:#808080;stroke-linecap:square;stroke-width:0.8;"/>
     </g>
     <g id="line2d_60">
      <g>
       <use style="stroke:#000000;stroke-width:0.6;" x="91.98" xlink:href="#m170b8459fb" y="134.232"/>
      </g>
     </g>
    </g>
    <g id="ytick_16">
     <g id="line2d_61">
      <path clip-path="url(#p7d4040d7ce)" d="M 91.98 112.1232 
L 662.256 112.1232 
" style="fill:none;stroke:#808080;stroke-linecap:square;stroke-width:0.8;"/>
     </g>
     <g id="line2d_62">
      <g>
       <use style="stroke:#000000;stroke-width:0.6;" x="91.98" xlink:href="#m170b8459fb" y="112.1232"/>
      </g>
     </g>
    </g>
    <g id="ytick_17">
     <g id="line2d_63">
      <path clip-path="url(#p7d4040d7ce)" d="M 91.98 67.9056 
L 662.256 67.9056 
" style="fill:none;stroke:#808080;stroke-linecap:square;stroke-width:0.8;"/>
     </g>
     <g id="line2d_64">
      <g>
       <use style="stroke:#000000;stroke-width:0.6;" x="91.98" xlink:href="#m170b8459fb" y="67.9056"/>
      </g>
     </g>
    </g>
    <g id="text_10">
     <!-- напряжение на конденсаторе в Вольтах -->
     <g transform="translate(72.537813 346.599581)rotate(-90)scale(0.1 -0.1)">
      <defs>
       <path d="M 2597 3500 
L 3169 3500 
L 3169 1856 
L 4697 3500 
L 5366 3500 
L 4109 2153 
L 5547 0 
L 4931 0 
L 3753 1769 
L 3169 1141 
L 3169 0 
L 2597 0 
L 2597 1141 
L 2013 1769 
L 834 0 
L 219 0 
L 1656 2153 
L 400 3500 
L 1069 3500 
L 2597 1856 
L 2597 3500 
z
" id="DejaVuSans-436" transform="scale(0.015625)"/>
       <path d="M 1959 3097 
Q 1497 3097 1228 2736 
Q 959 2375 959 1747 
Q 959 1119 1226 758 
Q 1494 397 1959 397 
Q 2419 397 2687 759 
Q 2956 1122 2956 1747 
Q 2956 2369 2687 2733 
Q 2419 3097 1959 3097 
z
M 1959 3584 
Q 2709 3584 3137 3096 
Q 3566 2609 3566 1747 
Q 3566 888 3137 398 
Q 2709 -91 1959 -91 
Q 1206 -91 779 398 
Q 353 888 353 1747 
Q 353 2609 779 3096 
Q 1206 3584 1959 3584 
z
" id="DejaVuSans-43e" transform="scale(0.015625)"/>
       <path d="M 1259 2228 
L 1259 519 
L 2272 519 
Q 2781 519 3026 730 
Q 3272 941 3272 1375 
Q 3272 1813 3026 2020 
Q 2781 2228 2272 2228 
L 1259 2228 
z
M 1259 4147 
L 1259 2741 
L 2194 2741 
Q 2656 2741 2882 2914 
Q 3109 3088 3109 3444 
Q 3109 3797 2882 3972 
Q 2656 4147 2194 4147 
L 1259 4147 
z
M 628 4666 
L 2241 4666 
Q 2963 4666 3353 4366 
Q 3744 4066 3744 3513 
Q 3744 3084 3544 2831 
Q 3344 2578 2956 2516 
Q 3422 2416 3680 2098 
Q 3938 1781 3938 1306 
Q 3938 681 3513 340 
Q 3088 0 2303 0 
L 628 0 
L 628 4666 
z
" id="DejaVuSans-412" transform="scale(0.015625)"/>
       <path d="M 2781 1038 
Q 2781 1319 2576 1466 
Q 2372 1613 1978 1613 
L 1159 1613 
L 1159 459 
L 1978 459 
Q 2372 459 2576 607 
Q 2781 756 2781 1038 
z
M 581 3500 
L 1159 3500 
L 1159 2072 
L 2003 2072 
Q 2672 2072 3033 1817 
Q 3394 1563 3394 1038 
Q 3394 513 3033 256 
Q 2672 0 2003 0 
L 581 0 
L 581 3500 
z
" id="DejaVuSans-44c" transform="scale(0.015625)"/>
      </defs>
      <use xlink:href="#DejaVuSans-43d"/>
      <use x="65.380859" xlink:href="#DejaVuSans-430"/>
      <use x="126.660156" xlink:href="#DejaVuSans-43f"/>
      <use x="192.041016" xlink:href="#DejaVuSans-440"/>
      <use x="255.517578" xlink:href="#DejaVuSans-44f"/>
      <use x="315.673828" xlink:href="#DejaVuSans-436"/>
      <use x="405.761719" xlink:href="#DejaVuSans-435"/>
      <use x="467.285156" xlink:href="#DejaVuSans-43d"/>
      <use x="532.666016" xlink:href="#DejaVuSans-438"/>
      <use x="597.65625" xlink:href="#DejaVuSans-435"/>
      <use x="659.179688" xlink:href="#DejaVuSans-20"/>
      <use x="690.966797" xlink:href="#DejaVuSans-43d"/>
      <use x="756.347656" xlink:href="#DejaVuSans-430"/>
      <use x="817.626953" xlink:href="#DejaVuSans-20"/>
      <use x="849.414062" xlink:href="#DejaVuSans-43a"/>
      <use x="909.814453" xlink:href="#DejaVuSans-43e"/>
      <use x="970.996094" xlink:href="#DejaVuSans-43d"/>
      <use x="1036.376953" xlink:href="#DejaVuSans-434"/>
      <use x="1105.517578" xlink:href="#DejaVuSans-435"/>
      <use x="1167.041016" xlink:href="#DejaVuSans-43d"/>
      <use x="1232.421875" xlink:href="#DejaVuSans-441"/>
      <use x="1287.402344" xlink:href="#DejaVuSans-430"/>
      <use x="1348.681641" xlink:href="#DejaVuSans-442"/>
      <use x="1406.933594" xlink:href="#DejaVuSans-43e"/>
      <use x="1468.115234" xlink:href="#DejaVuSans-440"/>
      <use x="1531.591797" xlink:href="#DejaVuSans-435"/>
      <use x="1593.115234" xlink:href="#DejaVuSans-20"/>
      <use x="1624.902344" xlink:href="#DejaVuSans-432"/>
      <use x="1683.837891" xlink:href="#DejaVuSans-20"/>
      <use x="1715.625" xlink:href="#DejaVuSans-412"/>
      <use x="1784.228516" xlink:href="#DejaVuSans-43e"/>
      <use x="1845.410156" xlink:href="#DejaVuSans-43b"/>
      <use x="1909.326172" xlink:href="#DejaVuSans-44c"/>
      <use x="1968.261719" xlink:href="#DejaVuSans-442"/>
      <use x="2026.513672" xlink:href="#DejaVuSans-430"/>
      <use x="2087.792969" xlink:href="#DejaVuSans-445"/>
     </g>
    </g>
   </g>
   <g id="line2d_65">
    <path clip-path="url(#p7d4040d7ce)" d="M 91.98 397.32672 
L 94.526551 394.465581 
L 97.073102 393.035012 
L 99.619654 390.173873 
L 102.166205 388.743304 
L 107.259307 383.021026 
L 112.35241 380.159887 
L 114.898961 377.298748 
L 117.445512 377.298748 
L 119.992063 373.00704 
L 122.538615 371.576471 
L 127.631717 365.854193 
L 130.178268 364.423624 
L 132.724819 361.562485 
L 135.271371 360.131915 
L 137.817922 357.270776 
L 142.911024 354.409638 
L 145.457576 351.548499 
L 150.550678 348.68736 
L 153.097229 345.826221 
L 160.736883 341.534513 
L 163.283434 338.673374 
L 176.01619 331.520527 
L 178.562741 331.520527 
L 181.109293 327.228819 
L 183.655844 325.798249 
L 188.748946 320.075972 
L 191.295497 320.075972 
L 196.3886 314.353694 
L 201.481702 311.492555 
L 204.028253 308.631416 
L 206.574805 308.631416 
L 209.121356 305.770278 
L 214.214458 302.909139 
L 216.76101 300.048 
L 247.319624 282.881167 
L 249.866175 280.020028 
L 280.42479 262.853195 
L 282.971341 262.853195 
L 285.517892 259.992056 
L 288.064444 259.992056 
L 290.610995 257.130918 
L 293.157546 257.130918 
L 303.343751 251.40864 
L 305.890302 251.40864 
L 316.076507 245.686362 
L 318.623058 245.686362 
L 326.262712 241.394654 
L 328.809263 241.394654 
L 331.355814 239.964085 
L 333.902365 239.964085 
L 336.448917 237.102946 
L 341.542019 234.241807 
L 344.08857 231.380668 
L 369.554082 217.074974 
L 372.100634 217.074974 
L 374.647185 214.213835 
L 395.019595 202.76928 
L 397.566146 202.76928 
L 407.752351 197.047002 
L 410.298902 197.047002 
L 415.392004 194.185864 
L 420.485107 194.185864 
L 423.031658 191.324725 
L 438.310965 182.741308 
L 440.857517 182.741308 
L 451.043721 177.019031 
L 453.590273 177.019031 
L 458.683375 174.157892 
L 461.229926 174.157892 
L 466.323029 171.296753 
L 468.86958 171.296753 
L 473.962682 168.435614 
L 476.509234 168.435614 
L 481.602336 165.574475 
L 484.148887 165.574475 
L 489.24199 162.713336 
L 491.788541 162.713336 
L 494.335092 161.282767 
L 496.881643 161.282767 
L 499.428194 159.852198 
L 501.974746 159.852198 
L 504.521297 158.421628 
L 507.067848 158.421628 
L 509.614399 156.991059 
L 512.160951 156.991059 
L 517.254053 154.12992 
L 522.347155 154.12992 
L 524.893707 152.699351 
L 527.440258 152.699351 
L 529.986809 151.268781 
L 535.079912 151.268781 
L 537.626463 149.838212 
L 540.173014 149.838212 
L 545.266116 146.977073 
L 547.812668 146.977073 
L 552.90577 144.115934 
L 555.452321 144.115934 
L 557.998872 142.685365 
L 560.545424 142.685365 
L 565.638526 139.824226 
L 568.185077 139.824226 
L 570.731629 138.393656 
L 573.27818 138.393656 
L 575.824731 136.963087 
L 580.917833 136.963087 
L 583.464385 135.532518 
L 586.010936 135.532518 
L 588.557487 134.101948 
L 593.650589 134.101948 
L 596.197141 132.671379 
L 598.743692 132.671379 
L 601.290243 131.240809 
L 608.929897 131.240809 
L 611.476448 129.81024 
L 616.56955 132.671379 
L 619.116102 132.671379 
L 624.209204 135.532518 
L 629.302306 135.532518 
L 631.848858 136.963087 
L 634.395409 136.963087 
L 636.94196 138.393656 
L 639.488511 138.393656 
L 642.035063 139.824226 
L 644.581614 139.824226 
L 647.128165 141.254795 
L 654.767819 141.254795 
L 657.31437 142.685365 
L 657.31437 142.685365 
" style="fill:none;stroke:#1f77b4;stroke-linecap:square;stroke-width:1.5;"/>
    <defs>
     <path d="M 0 1.5 
C 0.397805 1.5 0.77937 1.341951 1.06066 1.06066 
C 1.341951 0.77937 1.5 0.397805 1.5 0 
C 1.5 -0.397805 1.341951 -0.77937 1.06066 -1.06066 
C 0.77937 -1.341951 0.397805 -1.5 0 -1.5 
C -0.397805 -1.5 -0.77937 -1.341951 -1.06066 -1.06066 
C -1.341951 -0.77937 -1.5 -0.397805 -1.5 0 
C -1.5 0.397805 -1.341951 0.77937 -1.06066 1.06066 
C -0.77937 1.341951 -0.397805 1.5 0 1.5 
z
" id="mb2fdca8f0c" style="stroke:#1f77b4;"/>
    </defs>
    <g clip-path="url(#p7d4040d7ce)">
     <use style="fill:#1f77b4;stroke:#1f77b4;" x="91.98" xlink:href="#mb2fdca8f0c" y="397.32672"/>
     <use style="fill:#1f77b4;stroke:#1f77b4;" x="142.911024" xlink:href="#mb2fdca8f0c" y="354.409638"/>
     <use style="fill:#1f77b4;stroke:#1f77b4;" x="193.842049" xlink:href="#mb2fdca8f0c" y="317.214833"/>
     <use style="fill:#1f77b4;stroke:#1f77b4;" x="244.773073" xlink:href="#mb2fdca8f0c" y="284.311736"/>
     <use style="fill:#1f77b4;stroke:#1f77b4;" x="295.704097" xlink:href="#mb2fdca8f0c" y="255.700348"/>
     <use style="fill:#1f77b4;stroke:#1f77b4;" x="346.635122" xlink:href="#mb2fdca8f0c" y="229.950099"/>
     <use style="fill:#1f77b4;stroke:#1f77b4;" x="397.566146" xlink:href="#mb2fdca8f0c" y="202.76928"/>
     <use style="fill:#1f77b4;stroke:#1f77b4;" x="448.49717" xlink:href="#mb2fdca8f0c" y="178.4496"/>
     <use style="fill:#1f77b4;stroke:#1f77b4;" x="499.428194" xlink:href="#mb2fdca8f0c" y="159.852198"/>
     <use style="fill:#1f77b4;stroke:#1f77b4;" x="550.359219" xlink:href="#mb2fdca8f0c" y="145.546504"/>
     <use style="fill:#1f77b4;stroke:#1f77b4;" x="601.290243" xlink:href="#mb2fdca8f0c" y="131.240809"/>
     <use style="fill:#1f77b4;stroke:#1f77b4;" x="652.221267" xlink:href="#mb2fdca8f0c" y="141.254795"/>
    </g>
   </g>
   <g id="patch_3">
    <path d="M 91.98 421.6464 
L 91.98 56.8512 
" style="fill:none;stroke:#000000;stroke-linecap:square;stroke-linejoin:miter;stroke-width:0.8;"/>
   </g>
   <g id="patch_4">
    <path d="M 662.256 421.6464 
L 662.256 56.8512 
" style="fill:none;stroke:#000000;stroke-linecap:square;stroke-linejoin:miter;stroke-width:0.8;"/>
   </g>
   <g id="patch_5">
    <path d="M 91.98 421.6464 
L 662.256 421.6464 
" style="fill:none;stroke:#000000;stroke-linecap:square;stroke-linejoin:miter;stroke-width:0.8;"/>
   </g>
   <g id="patch_6">
    <path d="M 91.98 56.8512 
L 662.256 56.8512 
" style="fill:none;stroke:#000000;stroke-linecap:square;stroke-linejoin:miter;stroke-width:0.8;"/>
   </g>
   <g id="text_11">
    <!-- Процесс заряда и разряда конденсатора в RC-цепочке -->
    <g transform="translate(202.781438 50.8512)scale(0.12 -0.12)">
     <defs>
      <path d="M 4184 4666 
L 4184 0 
L 3553 0 
L 3553 4134 
L 1259 4134 
L 1259 0 
L 628 0 
L 628 4666 
L 4184 4666 
z
" id="DejaVuSans-41f" transform="scale(0.015625)"/>
      <path d="M 3603 0 
L 581 0 
L 581 3500 
L 1159 3500 
L 1159 459 
L 3025 459 
L 3025 3500 
L 3603 3500 
L 3603 459 
L 4063 459 
L 4063 -884 
L 3603 -884 
L 3603 0 
z
" id="DejaVuSans-446" transform="scale(0.015625)"/>
      <path d="M 2206 1888 
Q 2594 1813 2809 1584 
Q 3025 1356 3025 1019 
Q 3025 478 2622 193 
Q 2219 -91 1475 -91 
Q 1225 -91 961 -47 
Q 697 -3 416 84 
L 416 619 
Q 638 503 903 445 
Q 1169 388 1459 388 
Q 1931 388 2195 563 
Q 2459 738 2459 1019 
Q 2459 1294 2225 1461 
Q 1991 1628 1563 1628 
L 1100 1628 
L 1100 2103 
L 1584 2103 
Q 1947 2103 2158 2242 
Q 2369 2381 2369 2600 
Q 2369 2800 2151 2944 
Q 1934 3088 1563 3088 
Q 1341 3088 1089 3047 
Q 838 3006 534 2916 
L 534 3438 
Q 841 3513 1106 3550 
Q 1372 3588 1609 3588 
Q 2222 3588 2576 3342 
Q 2931 3097 2931 2656 
Q 2931 2366 2743 2164 
Q 2556 1963 2206 1888 
z
" id="DejaVuSans-437" transform="scale(0.015625)"/>
      <path d="M 2841 2188 
Q 3044 2119 3236 1894 
Q 3428 1669 3622 1275 
L 4263 0 
L 3584 0 
L 2988 1197 
Q 2756 1666 2539 1819 
Q 2322 1972 1947 1972 
L 1259 1972 
L 1259 0 
L 628 0 
L 628 4666 
L 2053 4666 
Q 2853 4666 3247 4331 
Q 3641 3997 3641 3322 
Q 3641 2881 3436 2590 
Q 3231 2300 2841 2188 
z
M 1259 4147 
L 1259 2491 
L 2053 2491 
Q 2509 2491 2742 2702 
Q 2975 2913 2975 3322 
Q 2975 3731 2742 3939 
Q 2509 4147 2053 4147 
L 1259 4147 
z
" id="DejaVuSans-52" transform="scale(0.015625)"/>
      <path d="M 4122 4306 
L 4122 3641 
Q 3803 3938 3442 4084 
Q 3081 4231 2675 4231 
Q 1875 4231 1450 3742 
Q 1025 3253 1025 2328 
Q 1025 1406 1450 917 
Q 1875 428 2675 428 
Q 3081 428 3442 575 
Q 3803 722 4122 1019 
L 4122 359 
Q 3791 134 3420 21 
Q 3050 -91 2638 -91 
Q 1578 -91 968 557 
Q 359 1206 359 2328 
Q 359 3453 968 4101 
Q 1578 4750 2638 4750 
Q 3056 4750 3426 4639 
Q 3797 4528 4122 4306 
z
" id="DejaVuSans-43" transform="scale(0.015625)"/>
      <path d="M 313 2009 
L 1997 2009 
L 1997 1497 
L 313 1497 
L 313 2009 
z
" id="DejaVuSans-2d" transform="scale(0.015625)"/>
     </defs>
     <use xlink:href="#DejaVuSans-41f"/>
     <use x="75.195312" xlink:href="#DejaVuSans-440"/>
     <use x="138.671875" xlink:href="#DejaVuSans-43e"/>
     <use x="199.853516" xlink:href="#DejaVuSans-446"/>
     <use x="267.919922" xlink:href="#DejaVuSans-435"/>
     <use x="329.443359" xlink:href="#DejaVuSans-441"/>
     <use x="384.423828" xlink:href="#DejaVuSans-441"/>
     <use x="439.404297" xlink:href="#DejaVuSans-20"/>
     <use x="471.191406" xlink:href="#DejaVuSans-437"/>
     <use x="524.365234" xlink:href="#DejaVuSans-430"/>
     <use x="585.644531" xlink:href="#DejaVuSans-440"/>
     <use x="649.121094" xlink:href="#DejaVuSans-44f"/>
     <use x="709.277344" xlink:href="#DejaVuSans-434"/>
     <use x="778.417969" xlink:href="#DejaVuSans-430"/>
     <use x="839.697266" xlink:href="#DejaVuSans-20"/>
     <use x="871.484375" xlink:href="#DejaVuSans-438"/>
     <use x="936.474609" xlink:href="#DejaVuSans-20"/>
     <use x="968.261719" xlink:href="#DejaVuSans-440"/>
     <use x="1031.738281" xlink:href="#DejaVuSans-430"/>
     <use x="1093.017578" xlink:href="#DejaVuSans-437"/>
     <use x="1146.191406" xlink:href="#DejaVuSans-440"/>
     <use x="1209.667969" xlink:href="#DejaVuSans-44f"/>
     <use x="1269.824219" xlink:href="#DejaVuSans-434"/>
     <use x="1338.964844" xlink:href="#DejaVuSans-430"/>
     <use x="1400.244141" xlink:href="#DejaVuSans-20"/>
     <use x="1432.03125" xlink:href="#DejaVuSans-43a"/>
     <use x="1492.431641" xlink:href="#DejaVuSans-43e"/>
     <use x="1553.613281" xlink:href="#DejaVuSans-43d"/>
     <use x="1618.994141" xlink:href="#DejaVuSans-434"/>
     <use x="1688.134766" xlink:href="#DejaVuSans-435"/>
     <use x="1749.658203" xlink:href="#DejaVuSans-43d"/>
     <use x="1815.039062" xlink:href="#DejaVuSans-441"/>
     <use x="1870.019531" xlink:href="#DejaVuSans-430"/>
     <use x="1931.298828" xlink:href="#DejaVuSans-442"/>
     <use x="1989.550781" xlink:href="#DejaVuSans-43e"/>
     <use x="2050.732422" xlink:href="#DejaVuSans-440"/>
     <use x="2114.208984" xlink:href="#DejaVuSans-430"/>
     <use x="2175.488281" xlink:href="#DejaVuSans-20"/>
     <use x="2207.275391" xlink:href="#DejaVuSans-432"/>
     <use x="2266.210938" xlink:href="#DejaVuSans-20"/>
     <use x="2297.998047" xlink:href="#DejaVuSans-52"/>
     <use x="2362.480469" xlink:href="#DejaVuSans-43"/>
     <use x="2432.304688" xlink:href="#DejaVuSans-2d"/>
     <use x="2468.388672" xlink:href="#DejaVuSans-446"/>
     <use x="2536.455078" xlink:href="#DejaVuSans-435"/>
     <use x="2597.978516" xlink:href="#DejaVuSans-43f"/>
     <use x="2663.359375" xlink:href="#DejaVuSans-43e"/>
     <use x="2724.541016" xlink:href="#DejaVuSans-447"/>
     <use x="2783.623047" xlink:href="#DejaVuSans-43a"/>
     <use x="2844.023438" xlink:href="#DejaVuSans-435"/>
    </g>
   </g>
  </g>
  <g id="text_12">
   <!-- Время заряда = 6.74 с -->
   <g style="fill:#0000ff;" transform="translate(294.336 284.256)scale(0.08 -0.08)">
    <defs>
     <path d="M 678 2906 
L 4684 2906 
L 4684 2381 
L 678 2381 
L 678 2906 
z
M 678 1631 
L 4684 1631 
L 4684 1100 
L 678 1100 
L 678 1631 
z
" id="DejaVuSans-3d" transform="scale(0.015625)"/>
     <path d="M 684 794 
L 1344 794 
L 1344 0 
L 684 0 
L 684 794 
z
" id="DejaVuSans-2e" transform="scale(0.015625)"/>
     <path d="M 525 4666 
L 3525 4666 
L 3525 4397 
L 1831 0 
L 1172 0 
L 2766 4134 
L 525 4134 
L 525 4666 
z
" id="DejaVuSans-37" transform="scale(0.015625)"/>
    </defs>
    <use xlink:href="#DejaVuSans-412"/>
    <use x="68.603516" xlink:href="#DejaVuSans-440"/>
    <use x="132.080078" xlink:href="#DejaVuSans-435"/>
    <use x="193.603516" xlink:href="#DejaVuSans-43c"/>
    <use x="269.042969" xlink:href="#DejaVuSans-44f"/>
    <use x="329.199219" xlink:href="#DejaVuSans-20"/>
    <use x="360.986328" xlink:href="#DejaVuSans-437"/>
    <use x="414.160156" xlink:href="#DejaVuSans-430"/>
    <use x="475.439453" xlink:href="#DejaVuSans-440"/>
    <use x="538.916016" xlink:href="#DejaVuSans-44f"/>
    <use x="599.072266" xlink:href="#DejaVuSans-434"/>
    <use x="668.212891" xlink:href="#DejaVuSans-430"/>
    <use x="729.492188" xlink:href="#DejaVuSans-20"/>
    <use x="761.279297" xlink:href="#DejaVuSans-3d"/>
    <use x="845.068359" xlink:href="#DejaVuSans-20"/>
    <use x="876.855469" xlink:href="#DejaVuSans-36"/>
    <use x="940.478516" xlink:href="#DejaVuSans-2e"/>
    <use x="972.265625" xlink:href="#DejaVuSans-37"/>
    <use x="1035.888672" xlink:href="#DejaVuSans-34"/>
    <use x="1099.511719" xlink:href="#DejaVuSans-20"/>
    <use x="1131.298828" xlink:href="#DejaVuSans-441"/>
   </g>
  </g>
  <g id="text_13">
   <!-- Время разряда = 0.63 с -->
   <g style="fill:#0000ff;" transform="translate(294.336 331.632)scale(0.08 -0.08)">
    <use xlink:href="#DejaVuSans-412"/>
    <use x="68.603516" xlink:href="#DejaVuSans-440"/>
    <use x="132.080078" xlink:href="#DejaVuSans-435"/>
    <use x="193.603516" xlink:href="#DejaVuSans-43c"/>
    <use x="269.042969" xlink:href="#DejaVuSans-44f"/>
    <use x="329.199219" xlink:href="#DejaVuSans-20"/>
    <use x="360.986328" xlink:href="#DejaVuSans-440"/>
    <use x="424.462891" xlink:href="#DejaVuSans-430"/>
    <use x="485.742188" xlink:href="#DejaVuSans-437"/>
    <use x="538.916016" xlink:href="#DejaVuSans-440"/>
    <use x="602.392578" xlink:href="#DejaVuSans-44f"/>
    <use x="662.548828" xlink:href="#DejaVuSans-434"/>
    <use x="731.689453" xlink:href="#DejaVuSans-430"/>
    <use x="792.96875" xlink:href="#DejaVuSans-20"/>
    <use x="824.755859" xlink:href="#DejaVuSans-3d"/>
    <use x="908.544922" xlink:href="#DejaVuSans-20"/>
    <use x="940.332031" xlink:href="#DejaVuSans-30"/>
    <use x="1003.955078" xlink:href="#DejaVuSans-2e"/>
    <use x="1035.742188" xlink:href="#DejaVuSans-36"/>
    <use x="1099.365234" xlink:href="#DejaVuSans-33"/>
    <use x="1162.988281" xlink:href="#DejaVuSans-20"/>
    <use x="1194.775391" xlink:href="#DejaVuSans-441"/>
   </g>
  </g>
 </g>
 <defs>
  <clipPath id="p7d4040d7ce">
   <rect height="364.7952" width="570.276" x="91.98" y="56.8512"/>
  </clipPath>
 </defs>
</svg>
